<?xml version="1.0" standalone="no"?>
<!DOCTYPE svg PUBLIC "-//W3C//DTD SVG 20010904//EN"
 "http://www.w3.org/TR/2001/REC-SVG-20010904/DTD/svg10.dtd">
<svg version="1.0" xmlns="http://www.w3.org/2000/svg"
 width="460.000000pt" height="460.000000pt" viewBox="0 0 460.000000 460.000000"
 preserveAspectRatio="xMidYMid meet">
<metadata>
Created by potrace 1.11, written by Peter Selinger 2001-2013
</metadata>
<g transform="translate(0.000000,460.000000) scale(0.100000,-0.100000)"
fill="#000000" stroke="none">
<path d="M640 4578 c-1 -35 -1 -1198 -1 -1239 l1 -36 308 -1 c169 0 317 -1
328 -1 22 -1 22 -2 22 -322 0 -301 -1 -321 -19 -327 -10 -4 -302 -7 -648 -7
l-631 1 0 -656 0 -655 648 0 647 0 0 656 0 655 328 0 c284 -1 327 1 328 14 6
87 2 1293 -4 1297 -5 3 -152 5 -328 5 -289 0 -319 2 -320 16 0 10 -1 153 -1
320 l-1 302 -328 0 -329 0 0 -22z"/>
<path d="M3265 4285 c0 -273 -2 -316 -15 -320 -8 -2 -154 -4 -325 -3 l-310 1
-3 -330 -2 -331 317 0 c175 0 323 -1 328 -1 7 -1 10 -115 10 -326 0 -210 3
-326 10 -328 5 -1 154 -2 330 -2 l320 1 2 653 c1 359 4 656 7 658 3 3 154 6
336 5 l330 0 0 319 0 319 -668 0 -667 0 0 -315z"/>
<path d="M2610 1331 l0 -660 313 0 c171 0 319 2 327 4 13 4 15 48 15 330 0
212 3 326 10 328 5 2 306 3 668 3 l657 -1 0 327 0 328 -995 0 -995 0 0 -659z"/>
<path d="M1302 1326 c-3 -6 -5 -155 -5 -333 l0 -322 -571 0 c-314 0 -606 0
-648 -1 l-78 0 0 -335 0 -335 978 0 977 0 -1 652 c-1 359 -2 660 -3 668 -1 13
-44 15 -322 15 -195 0 -323 -4 -327 -9z"/>
<path d="M3330 672 l-65 -3 0 -332 0 -332 332 -3 332 -2 0 335 0 335 -94 0
c-52 1 -173 2 -267 3 -95 1 -202 1 -238 -1z"/>
</g>
</svg>
